# Blender v2.91.0 OBJ File: ''
# www.blender.org
mtllib untitled.mtl
o Cube
v -1.000000 -1.000000 1.000000
v -0.676804 1.000000 0.676804
v -1.000000 -1.000000 -1.000000
v -0.676804 1.000000 -0.676804
v 1.000000 -1.000000 1.000000
v 0.676804 1.000000 0.676804
v 1.000000 -1.000000 -1.000000
v 0.676804 1.000000 -0.676804
v -1.000000 1.000000 1.000000
v -1.000000 1.000000 -1.000000
v 1.000000 1.000000 -1.000000
v 1.000000 1.000000 1.000000
v -0.676804 3.528965 0.676804
v -0.676804 3.528965 -0.676804
v 0.676804 3.528965 -0.676804
v 0.676804 3.528965 0.676804
vt 0.375000 0.000000
vt 0.625000 0.000000
vt 0.625000 0.250000
vt 0.375000 0.250000
vt 0.625000 0.500000
vt 0.375000 0.500000
vt 0.625000 0.750000
vt 0.375000 0.750000
vt 0.625000 1.000000
vt 0.375000 1.000000
vt 0.125000 0.500000
vt 0.125000 0.750000
vt 0.834601 0.709601
vt 0.665400 0.709601
vt 0.665400 0.709601
vt 0.834601 0.709601
vt 0.834601 0.540400
vt 0.875000 0.500000
vt 0.875000 0.750000
vt 0.665400 0.540400
vt 0.665400 0.540400
vt 0.834601 0.540400
vn -1.0000 0.0000 0.0000
vn 0.0000 0.0000 -1.0000
vn 1.0000 0.0000 0.0000
vn 0.0000 0.0000 1.0000
vn 0.0000 -1.0000 0.0000
vn 0.0000 1.0000 0.0000
usemtl None
s off
f 1/1/1 9/2/1 10/3/1 3/4/1
f 3/4/2 10/3/2 11/5/2 7/6/2
f 7/6/3 11/5/3 12/7/3 5/8/3
f 5/8/4 12/7/4 9/9/4 1/10/4
f 3/11/5 7/6/5 5/8/5 1/12/5
f 2/13/4 6/14/4 16/15/4 13/16/4
f 2/13/6 4/17/6 10/18/6 9/19/6
f 4/17/6 8/20/6 11/5/6 10/18/6
f 8/20/6 6/14/6 12/7/6 11/5/6
f 6/14/6 2/13/6 9/19/6 12/7/6
f 15/21/6 14/22/6 13/16/6 16/15/6
f 8/20/2 4/17/2 14/22/2 15/21/2
f 6/14/3 8/20/3 15/21/3 16/15/3
f 4/17/1 2/13/1 13/16/1 14/22/1
