# Blender v2.91.0 OBJ File: ''
# www.blender.org
mtllib untitled.mtl
o Plane
v -3.888303 0.000000 3.888303
v 3.888303 0.000000 3.888303
v -3.888303 0.000000 -3.888303
v 3.888303 0.000000 -3.888303
v -0.344738 0.000000 -0.344738
v -0.344738 0.000000 0.344738
v 0.344738 0.000000 0.344738
v 0.344738 0.000000 -0.344738
v -0.184800 1.021437 -0.184800
v -0.184800 1.021437 0.184800
v 0.184800 1.021437 0.184800
v 0.184800 1.021437 -0.184800
v -0.585930 1.021437 -0.585930
v -0.585930 1.021437 0.585930
v 0.585930 1.021437 0.585930
v 0.585930 1.021437 -0.585930
v -0.184800 2.080469 -0.184800
v -0.184800 2.080469 0.184800
v 0.184800 2.080469 0.184800
v 0.184800 2.080469 -0.184800
vt 0.455670 0.455670
vt 0.544330 0.455670
vt 0.544330 0.455670
vt 0.455670 0.455670
vt 0.455670 0.544330
vt 0.000000 1.000000
vt 0.000000 0.000000
vt 1.000000 0.000000
vt 0.544330 0.544330
vt 1.000000 1.000000
vt 0.513982 0.513982
vt 0.486018 0.513982
vt 0.486018 0.513982
vt 0.513982 0.513982
vt 0.544330 0.544330
vt 0.455670 0.544330
vt 0.486018 0.486018
vt 0.513982 0.486018
vt 0.486018 0.486018
vt 0.513982 0.486018
vn 0.0000 -0.2298 0.9732
vn 0.0000 1.0000 0.0000
vn 0.0000 0.0000 -1.0000
vn 0.9732 -0.2298 0.0000
vn -0.9732 -0.2298 0.0000
vn 0.0000 -0.2298 -0.9732
vn 0.0000 0.0000 1.0000
vn 1.0000 0.0000 0.0000
vn -1.0000 0.0000 0.0000
usemtl None
s off
f 6/1/1 7/2/1 15/3/1 14/4/1
f 6/1/2 5/5/2 3/6/2 1/7/2
f 7/2/2 6/1/2 1/7/2 2/8/2
f 8/9/2 7/2/2 2/8/2 4/10/2
f 5/5/2 8/9/2 4/10/2 3/6/2
f 12/11/3 9/12/3 17/13/3 20/14/3
f 7/2/4 8/9/4 16/15/4 15/3/4
f 5/5/5 6/1/5 14/4/5 13/16/5
f 8/9/6 5/5/6 13/16/6 16/15/6
f 10/17/2 9/12/2 13/16/2 14/4/2
f 11/18/2 10/17/2 14/4/2 15/3/2
f 12/11/2 11/18/2 15/3/2 16/15/2
f 9/12/2 12/11/2 16/15/2 13/16/2
f 18/19/2 19/20/2 20/14/2 17/13/2
f 10/17/7 11/18/7 19/20/7 18/19/7
f 11/18/8 12/11/8 20/14/8 19/20/8
f 9/12/9 10/17/9 18/19/9 17/13/9
